<?xml version="1.0" encoding="UTF-8" standalone="no"?>
<!-- Created with Inkscape (http://www.inkscape.org/) -->

<svg
   xmlns:dc="http://purl.org/dc/elements/1.1/"
   xmlns:cc="http://creativecommons.org/ns#"
   xmlns:rdf="http://www.w3.org/1999/02/22-rdf-syntax-ns#"
   xmlns:svg="http://www.w3.org/2000/svg"
   xmlns="http://www.w3.org/2000/svg"
   xmlns:xlink="http://www.w3.org/1999/xlink"
   xmlns:sodipodi="http://sodipodi.sourceforge.net/DTD/sodipodi-0.dtd"
   xmlns:inkscape="http://www.inkscape.org/namespaces/inkscape"
   width="210mm"
   height="297mm"
   viewBox="0 0 210 297"
   version="1.1"
   id="svg8"
   inkscape:version="0.92.3 (2405546, 2018-03-11)"
   sodipodi:docname="logo.svg">
  <defs
     id="defs2">
    <linearGradient
       inkscape:collect="always"
       id="linearGradient4589">
      <stop
         style="stop-color:#f4d7c5;stop-opacity:0.95813954"
         offset="0"
         id="stop4585" />
      <stop
         style="stop-color:#ac9393;stop-opacity:1"
         offset="1"
         id="stop4587" />
    </linearGradient>
    <radialGradient
       inkscape:collect="always"
       xlink:href="#linearGradient4589"
       id="radialGradient4591"
       cx="137.94096"
       cy="93.883438"
       fx="137.94096"
       fy="93.883438"
       r="169.33333"
       gradientTransform="matrix(0.93370874,0,0,0.47697834,9.7712183,72.19224)"
       gradientUnits="userSpaceOnUse" />
    <radialGradient
       inkscape:collect="always"
       xlink:href="#linearGradient4589"
       id="radialGradient4652"
       gradientUnits="userSpaceOnUse"
       gradientTransform="matrix(0.67582529,0,0,0.39992779,50.938467,102.74989)"
       cx="137.94096"
       cy="93.883438"
       fx="137.94096"
       fy="93.883438"
       r="169.33333" />
  </defs>
  <sodipodi:namedview
     id="base"
     pagecolor="#ffffff"
     bordercolor="#666666"
     borderopacity="1.0"
     inkscape:pageopacity="0.0"
     inkscape:pageshadow="2"
     inkscape:zoom="0.52913439"
     inkscape:cx="354.75275"
     inkscape:cy="501.36127"
     inkscape:document-units="mm"
     inkscape:current-layer="layer1"
     showgrid="false"
     inkscape:snap-text-baseline="true"
     showguides="false"
     inkscape:snap-nodes="false"
     inkscape:window-width="1288"
     inkscape:window-height="745"
     inkscape:window-x="70"
     inkscape:window-y="-8"
     inkscape:window-maximized="1"
     inkscape:measure-start="479.67,492.758"
     inkscape:measure-end="390.528,443.058" />
  <metadata
     id="metadata5">
    <rdf:RDF>
      <cc:Work
         rdf:about="">
        <dc:format>image/svg+xml</dc:format>
        <dc:type
           rdf:resource="http://purl.org/dc/dcmitype/StillImage" />
        <dc:title />
      </cc:Work>
    </rdf:RDF>
  </metadata>
  <g
     inkscape:groupmode="layer"
     id="layer2"
     inkscape:label="Capa 2" />
  <g
     inkscape:label="Capa 1"
     inkscape:groupmode="layer"
     id="layer1">
    <g
       id="g171"
       transform="translate(1.5000916,-47.502897)">
      <path
         transform="matrix(0.79501498,0,0,0.75895717,6.6461221,25.79367)"
         d="m 160.15089,211.17379 -17.88526,-1.14361 -2.62181,17.72897 -16.4155,-7.19176 -8.52736,15.76307 -12.96581,-12.37247 -13.404381,11.89591 -7.952233,-16.06089 -16.664643,6.59393 -1.979507,-17.81213 -17.914898,0.49663 4.231977,-17.41496 -17.004353,-5.66058 9.933022,-14.91728 -14.042832,-11.13504 14.435999,-10.62037 -9.387538,-15.26644 17.197781,-5.04248 -3.599968,-17.55649 17.885256,1.14361 2.62181,-17.728972 16.415506,7.191762 8.527361,-15.763072 12.965801,12.372477 13.40439,-11.895911 7.95223,16.060886 16.66464,-6.593925 1.97951,17.812125 17.9149,-0.49662 -4.23198,17.41495 17.00435,5.66058 -9.93302,14.91728 14.04283,11.13504 -14.43599,10.62037 9.38753,15.26644 -17.19778,5.04248 z"
         inkscape:randomized="0"
         inkscape:rounded="0"
         inkscape:flatsided="false"
         sodipodi:arg2="0.89073481"
         sodipodi:arg1="0.71620188"
         sodipodi:r2="62.65242"
         sodipodi:r1="75.942329"
         sodipodi:cy="161.3158"
         sodipodi:cx="102.86723"
         sodipodi:sides="18"
         id="path70"
         style="opacity:1;fill:#000000;fill-opacity:0.95813952;stroke-width:0.26458332"
         sodipodi:type="star" />
      <path
         inkscape:transform-center-y="-5.0422153e-006"
         inkscape:transform-center-x="-5.191179e-006"
         transform="matrix(1.0405627,-0.1819818,0.18436629,1.0222832,-38.521633,9.6006999)"
         d="m 113.77172,202.32284 -10.52735,-7.07945 -7.927499,9.90446 -7.471151,-10.25307 -10.83694,6.59579 -3.513828,-12.19003 -12.439285,2.49157 0.867316,-12.65668 -12.541269,-1.91318 5.143848,-11.59675 -11.130591,-6.08717 8.799957,-9.13807 -8.3774,-9.52696 11.394661,-5.57722 -4.61377,-11.81765 12.615,-1.34367 -0.293651,-12.68296 12.313784,3.05195 4.061886,-12.01852 10.527345,7.07946 7.9275,-9.904469 7.471147,10.253079 10.83694,-6.59579 3.51383,12.19002 12.43929,-2.49156 -0.86732,12.65667 12.54127,1.91319 -5.14385,11.59674 11.13059,6.08717 -8.79995,9.13808 8.3774,9.52695 -11.39467,5.57722 4.61377,11.81765 -12.615,1.34367 0.29366,12.68296 -12.31379,-3.05195 z"
         inkscape:randomized="0"
         inkscape:rounded="0"
         inkscape:flatsided="false"
         sodipodi:arg2="1.4188985"
         sodipodi:arg1="1.2443656"
         sodipodi:r2="44.35001"
         sodipodi:r1="53.757587"
         sodipodi:cy="151.40404"
         sodipodi:cx="96.533577"
         sodipodi:sides="18"
         id="path72"
         style="opacity:1;fill:#00aad4;fill-opacity:0.95813952;stroke-width:0.26458332"
         sodipodi:type="star" />
      <path
         sodipodi:open="true"
         d="M 101.33511,183.35111 A 40.252453,38.127323 0 0 1 51.556721,158.58633 40.252453,38.127323 0 0 1 76.479516,110.8458 40.252453,38.127323 0 0 1 127.47408,133.28095 40.252453,38.127323 0 0 1 105.0397,182.11627"
         sodipodi:end="1.1836212"
         sodipodi:start="1.2812262"
         sodipodi:ry="38.127323"
         sodipodi:rx="40.252453"
         sodipodi:cy="146.81116"
         sodipodi:cx="89.841415"
         sodipodi:type="arc"
         id="path133"
         style="opacity:1;fill:#2ad4ff;fill-opacity:0.95813952;stroke-width:0.59303188" />
      <g
         transform="translate(-6.2748692,-3.6281266)"
         id="g99">
        <path
           id="path4647"
           style="font-style:normal;font-variant:normal;font-weight:bold;font-stretch:condensed;font-size:medium;line-height:1.25;font-family:'Agency FB';-inkscape-font-specification:'Agency FB Bold Condensed';letter-spacing:0px;word-spacing:0px;fill:#333333;fill-opacity:1;stroke:none;stroke-width:1.29108393"
           d="m 93.551497,177.69908 h -7.886761 l -1.597749,-9.87625 h -9.960436 l -1.597749,9.87625 h -7.852767 v -0.13301 l 11.206688,-52.38131 3.762723,-1.92627 z M 82.945162,161.1389 79.069772,137.66201 75.160386,161.1389 Z"
           inkscape:connector-curvature="0"
           sodipodi:nodetypes="cccccccccccccc" />
        <path
           id="path4649"
           style="font-style:normal;font-variant:normal;font-weight:bold;font-stretch:condensed;font-size:medium;line-height:1.25;font-family:'Agency FB';-inkscape-font-specification:'Agency FB Bold Condensed';letter-spacing:0px;word-spacing:0px;fill:#333333;fill-opacity:1;stroke:none;stroke-width:1.29108393"
           d="m 127.51379,171.72471 c 0,2.07758 -2.31892,5.97437 -5.99558,5.97437 h -18.85614 c -3.195499,0 -4.79325,-2.37925 -4.79325,-4.75523 v -12.40352 l 4.08417,-2.43634 3.87058,13.04417 h 9.72247 V 160.93938 L 99.602547,146.17488 C 98.446729,145.0886 97.86882,143.70304 97.86882,142.0182 v -11.57218 c 0,-4.49398 6.24618,-7.94417 9.96229,-7.13867 l 10.84244,2.35018 c 3.14513,0.68173 9.55168,13.52219 8.85793,13.939 l -4.03069,2.42167 h -7.95475 v -9.80975 h -9.72247 v 9.4107 l 15.9435,14.69801 c 1.15581,1.0641 5.74672,2.675 5.74672,4.42636 z"
           inkscape:connector-curvature="0"
           sodipodi:nodetypes="ssssccccccsssssccccccss" />
        <rect
           style="opacity:1;fill:#333333;fill-opacity:0.95813952;stroke-width:0.13425311"
           id="rect4728"
           width="0.34988397"
           height="4.7464862"
           x="235.65381"
           y="163.86024"
           transform="matrix(0.92154413,0.38827365,-0.85994833,0.5103811,0,0)" />
        <rect
           style="opacity:1;fill:#333333;fill-opacity:0.95813952;stroke-width:0.26458332"
           id="rect4730"
           width="0.34058255"
           height="1.5245123"
           x="68.035416"
           y="175.26607" />
        <path
           style="opacity:1;fill:#000000;fill-opacity:0.95813952;stroke-width:0.597718"
           d="m 187.59747,50.836094 3.95093,-6.244789 0.0976,4.689456 -3.9573,6.352615 z"
           id="rect4734"
           inkscape:connector-curvature="0"
           sodipodi:nodetypes="ccccc"
           transform="matrix(0.60138622,0.79895845,-0.86693494,0.49842131,0,0)" />
        <path
           style="opacity:1;fill:#000000;fill-opacity:0.95813952;stroke-width:0.26458332"
           d="m 78.188018,165.4216 9.941766,-0.0162 -4.054554,2.41652 -6.276449,-0.0162 z"
           id="rect4737"
           inkscape:connector-curvature="0"
           sodipodi:nodetypes="ccccc" />
        <path
           style="opacity:1;fill:#000000;fill-opacity:0.95813952;stroke-width:0.26458332"
           d="m 89.679846,175.20973 7.958799,0.0229 -3.990868,2.47709 -7.935863,-0.0229 z"
           id="rect4740"
           inkscape:connector-curvature="0"
           sodipodi:nodetypes="ccccc" />
        <path
           style="opacity:1;fill:#000000;fill-opacity:0.95813952;stroke-width:0.26458332"
           d="m 109.90941,129.84226 9.679,-0.0917 -3.99087,2.43121 h -5.734 z"
           id="rect4743"
           inkscape:connector-curvature="0"
           sodipodi:nodetypes="ccccc" />
        <path
           style="opacity:1;fill:#000000;fill-opacity:0.95813952;stroke-width:0.26458332"
           d="m 119.54254,139.52127 h 7.98173 l -3.99086,2.47709 h -7.98174 z"
           id="rect4746"
           inkscape:connector-curvature="0"
           sodipodi:nodetypes="ccccc" />
        <path
           style="opacity:1;fill:#000000;fill-opacity:0.95813952;stroke-width:0.26458332"
           d="m 84.115307,167.64337 3.976408,-2.21702 1.726945,10.34814 -4.15027,1.87747 z"
           id="rect4751"
           inkscape:connector-curvature="0"
           sodipodi:nodetypes="ccccc" />
        <path
           style="opacity:1;fill:#000000;fill-opacity:0.95813952;stroke-width:0.26458332"
           d="m 80.931663,148.70904 2.178283,-13.15349 3.853889,23.12334 -4.356569,2e-5 z"
           id="rect4749"
           inkscape:connector-curvature="0"
           sodipodi:nodetypes="ccccc" />
        <path
           style="opacity:1;fill:#000000;fill-opacity:0.95813952;stroke-width:0.26458332"
           d="m 115.36532,160.77341 4.32336,-2.29528 0.0332,10.33818 h -4.27279 z"
           id="rect4758"
           inkscape:connector-curvature="0"
           sodipodi:nodetypes="ccccc" />
        <path
           style="opacity:1;fill:#000000;fill-opacity:0.95813952;stroke-width:0.26458332"
           d="m 100.37383,174.92509 22.92823,0.35575 -1.49958,2.38865 -19.5118,-0.002 z"
           id="rect4761"
           inkscape:connector-curvature="0"
           sodipodi:nodetypes="ccccc" />
        <path
           style="opacity:1;fill:#000000;fill-opacity:0.95813952;stroke-width:0.26458332"
           d="m 127.34051,171.31544 c 0.48492,0.91619 -0.60964,3.14195 -1.37756,4.15643 -1.88496,1.9301 -2.74915,2.14786 -4.17813,2.20788 l 2.28959,-3.92096 z"
           id="path4764"
           inkscape:connector-curvature="0"
           sodipodi:nodetypes="ccccc" />
        <path
           style="opacity:1;fill:#000000;fill-opacity:0.95813952;stroke-width:0.26458332"
           d="m 102.30764,177.65498 c -0.38931,0.12201 -2.464415,-0.45198 -3.372325,-1.52479 -1.62562,-1.77454 -0.998309,-5.18074 -1.053304,-6.21446 l 4.075599,-2.1932 z"
           id="path4767"
           inkscape:connector-curvature="0"
           sodipodi:nodetypes="ccccc" />
        <rect
           style="opacity:1;fill:#000000;fill-opacity:0.95813952;stroke-width:0.26458332"
           id="rect4770"
           width="3.7625523"
           height="4.0940547"
           x="101.67187"
           y="171.34392" />
        <path
           sodipodi:nodetypes="cccccccccccccc"
           inkscape:connector-curvature="0"
           id="path4642"
           style="font-style:normal;font-variant:normal;font-weight:bold;font-stretch:condensed;font-size:medium;line-height:1.25;font-family:'Agency FB';-inkscape-font-specification:'Agency FB Bold Condensed';letter-spacing:0px;word-spacing:0px;fill:#e2e3db;fill-opacity:1;stroke:none;stroke-width:1.29108393"
           d="m 97.640383,175.27666 h -7.886759 l -1.597749,-9.87625 h -9.960436 l -1.597749,9.87625 h -7.852767 l -0.04865,-0.003 10.907104,-52.01179 7.80462,-0.0931 z M 87.034051,158.71648 83.15866,135.23959 79.249274,158.71648 Z" />
        <path
           sodipodi:nodetypes="sssscccccccsssssccccccss"
           inkscape:connector-curvature="0"
           id="path4644"
           style="font-style:normal;font-variant:normal;font-weight:bold;font-stretch:condensed;font-size:medium;line-height:1.25;font-family:'Agency FB';-inkscape-font-specification:'Agency FB Bold Condensed';letter-spacing:0px;word-spacing:0px;fill:#e2e3db;fill-opacity:1;stroke:none;stroke-width:1.29108393"
           d="m 127.58968,170.52143 c 0,3.17015 -1.60908,4.75523 -4.82724,4.75523 h -16.01149 c -3.1955,0 -4.79325,-1.58508 -4.79325,-4.75523 v -11.89202 -0.5115 h 7.95476 v 10.60783 h 9.72247 v -10.20878 l -15.9435,-14.7645 c -1.15582,-1.08628 -1.73373,-2.47185 -1.73373,-4.15668 V 128.0236 c 0,-3.19232 1.59775,-4.78849 4.79325,-4.78849 h 16.01149 c 3.21816,0 4.82724,1.57399 4.82724,4.72198 v 11.63869 h -7.95475 v -9.80975 h -9.72247 v 9.4107 l 15.9435,14.698 c 1.15582,1.06411 1.73372,2.47184 1.73372,4.22318 z" />
      </g>
      <path
         id="rect130"
         d="m 89.75547,144.89697 h 0.171886 v 3.82836 H 89.75547 Z"
         style="opacity:1;fill:#000000;fill-opacity:0.95813952;stroke-width:0.26458332"
         inkscape:connector-curvature="0" />
    </g>
  </g>
</svg>
